<?xml version="1.0" encoding="utf-8"?>
<!-- Generator: Adobe Illustrator 20.1.0, SVG Export Plug-In . SVG Version: 6.00 Build 0)  -->
<svg version="1.1" id="Layer_1" xmlns="http://www.w3.org/2000/svg" xmlns:xlink="http://www.w3.org/1999/xlink" x="0px" y="0px"
	 viewBox="0 0 12.6 11.8" style="enable-background:new 0 0 12.6 11.8;" xml:space="preserve">
<style type="text/css">
	.st0{fill:#FFFFFF;}
</style>
<g>
	<path class="st0" d="M2.5,2.8v1.6H1.4V2.8c0-0.4,0.1-0.7,0.4-1s0.6-0.4,1-0.4h1.6v1.1H2.8C2.6,2.5,2.5,2.6,2.5,2.8z M2.8,9.3h1.6
		v1.1H2.8c-0.4,0-0.7-0.1-1-0.4S1.4,9.4,1.4,9V7.4h1.1V9C2.5,9.2,2.6,9.3,2.8,9.3z M9.8,1.4c0.4,0,0.7,0.1,1,0.4s0.4,0.6,0.4,1v1.6
		H10V2.8c0-0.2-0.1-0.3-0.3-0.3H8.2V1.4H9.8z M10,9V7.4h1.1V9c0,0.4-0.1,0.7-0.4,1s-0.6,0.4-1,0.4H8.2V9.3h1.6C9.9,9.3,10,9.2,10,9z
		"/>
</g>
</svg>
